# xmcd
#
# Track frame offsets:
#	150
#	10677
#	21144
#	31087
#	43435
#	56030
#	67182
#	79752
#	90267
#	105345
#	118880
#	134895
#	151667
#	165270
#	175887
#
# Disc length: 2556 seconds
# Revision: 2
# Processed by: cddbd v1.5.2PL0 Copyright (c) Steve Scherf et al.
# Submitted via: dBpowerAMP V12.0
#
DISCID=ba09fa0f
DTITLE=Various Artist - Ralph Emery Presents Country Roads: The Gambler
DYEAR=2006
DGENRE=Country
TTITLE0=Buck Owens - Act Naturally
TTITLE1=Cowboy Copas - Alabam
TTITLE2=George Hamelton IV - Abilene
TTITLE3=Glen Campbell - By The Time I Get To Phoenix
TTITLE4=Jerry Reed - East Bound and Down
TTITLE5=Stonewall Jackson - Waterloo
TTITLE6=Al Dexter and His Troopers - Pistol Packin' Mama
TTITLE7=Willie Nelson - Blue Eyes Crying In The Rain
TTITLE8=Gene Watson - Love In The Hot Afternoon
TTITLE9=Mickey Gilley - Don't The Girls All Get Prettier At Closing Time
TTITLE10=Kenny Rogers - The Gambler
TTITLE11=T. G. Sheppard - Last Cheater's Waltz
TTITLE12=Patsy Cline - She's Got You
TTITLE13=George Jones and Tammy Wynette - Near You
TTITLE14=Ray Stevens - Everything Is Beautiful
EXTD=
EXTT0=
EXTT1=
EXTT2=
EXTT3=
EXTT4=
EXTT5=
EXTT6=
EXTT7=
EXTT8=
EXTT9=
EXTT10=
EXTT11=
EXTT12=
EXTT13=
EXTT14=
PLAYORDER=
